<mxfile host="app.diagrams.net" modified="2021-08-23T22:12:14.872Z" agent="5.0 (Windows NT 10.0; Win64; x64) AppleWebKit/537.36 (KHTML, like Gecko) Chrome/92.0.4515.159 Safari/537.36" etag="cnRjjTisD4o198GkL5yC" version="14.9.2" type="github">
  <diagram id="6_2mnY0ptDNMbGQ0N69w" name="Page-1">
    <mxGraphModel dx="1102" dy="582" grid="1" gridSize="10" guides="1" tooltips="1" connect="1" arrows="1" fold="1" page="1" pageScale="1" pageWidth="850" pageHeight="1100" math="0" shadow="0">
      <root>
        <mxCell id="0" />
        <mxCell id="1" parent="0" />
        <mxCell id="cdzFtAArv54lbndmP12y-1" value="" style="rounded=0;whiteSpace=wrap;html=1;" vertex="1" parent="1">
          <mxGeometry x="70" y="100" width="750" height="450" as="geometry" />
        </mxCell>
        <mxCell id="cdzFtAArv54lbndmP12y-4" value="" style="rounded=0;whiteSpace=wrap;html=1;" vertex="1" parent="1">
          <mxGeometry x="120" y="120" width="310" height="90" as="geometry" />
        </mxCell>
        <mxCell id="cdzFtAArv54lbndmP12y-2" value="LogIn" style="rounded=0;whiteSpace=wrap;html=1;" vertex="1" parent="1">
          <mxGeometry x="130" y="140" width="110" height="60" as="geometry" />
        </mxCell>
        <mxCell id="cdzFtAArv54lbndmP12y-3" value="" style="rounded=0;whiteSpace=wrap;html=1;" vertex="1" parent="1">
          <mxGeometry x="140" y="300" width="220" height="230" as="geometry" />
        </mxCell>
        <mxCell id="cdzFtAArv54lbndmP12y-6" value="Create" style="rounded=0;whiteSpace=wrap;html=1;" vertex="1" parent="1">
          <mxGeometry x="305" y="140" width="120" height="60" as="geometry" />
        </mxCell>
        <mxCell id="cdzFtAArv54lbndmP12y-5" value="LogIn Or Create" style="text;html=1;strokeColor=none;fillColor=none;align=center;verticalAlign=middle;whiteSpace=wrap;rounded=0;" vertex="1" parent="1">
          <mxGeometry x="230" y="130" width="90" height="20" as="geometry" />
        </mxCell>
        <mxCell id="cdzFtAArv54lbndmP12y-7" value="Reviews" style="text;html=1;strokeColor=none;fillColor=none;align=center;verticalAlign=middle;whiteSpace=wrap;rounded=0;" vertex="1" parent="1">
          <mxGeometry x="220" y="300" width="40" height="20" as="geometry" />
        </mxCell>
        <mxCell id="cdzFtAArv54lbndmP12y-8" value="" style="rounded=0;whiteSpace=wrap;html=1;" vertex="1" parent="1">
          <mxGeometry x="110" y="220" width="340" height="70" as="geometry" />
        </mxCell>
        <mxCell id="cdzFtAArv54lbndmP12y-9" value="Search" style="text;html=1;strokeColor=none;fillColor=none;align=center;verticalAlign=middle;whiteSpace=wrap;rounded=0;" vertex="1" parent="1">
          <mxGeometry x="240" y="220" width="40" height="20" as="geometry" />
        </mxCell>
        <mxCell id="cdzFtAArv54lbndmP12y-10" value="" style="rounded=0;whiteSpace=wrap;html=1;" vertex="1" parent="1">
          <mxGeometry x="480" y="180" width="280" height="310" as="geometry" />
        </mxCell>
        <mxCell id="cdzFtAArv54lbndmP12y-11" value="DetailsOREdit" style="text;html=1;strokeColor=none;fillColor=none;align=center;verticalAlign=middle;whiteSpace=wrap;rounded=0;" vertex="1" parent="1">
          <mxGeometry x="590" y="190" width="40" height="20" as="geometry" />
        </mxCell>
      </root>
    </mxGraphModel>
  </diagram>
</mxfile>
